<?xml version="1.0" standalone="no"?>
<!DOCTYPE svg PUBLIC "-//W3C//DTD SVG 20010904//EN"
 "http://www.w3.org/TR/2001/REC-SVG-20010904/DTD/svg10.dtd">
<svg version="1.0" xmlns="http://www.w3.org/2000/svg"
 width="64.000000pt" height="64.000000pt" viewBox="0 0 64.000000 64.000000"
 preserveAspectRatio="xMidYMid meet">
<metadata>
Created by potrace 1.15, written by Peter Selinger 2001-2017
</metadata>
<g transform="translate(0.000000,64.000000) scale(0.100000,-0.100000)"
fill="#000000" stroke="none">
<path d="M290 617 c0 -12 -9 -29 -20 -37 -11 -8 -20 -20 -20 -27 0 -7 -4 -13
-10 -13 -5 0 -10 -7 -10 -15 0 -8 -4 -15 -10 -15 -5 0 -10 -8 -10 -18 0 -11
-9 -27 -20 -37 -11 -10 -20 -24 -20 -32 0 -7 -4 -13 -10 -13 -5 0 -10 -7 -10
-15 0 -8 -4 -15 -10 -15 -5 0 -10 -8 -10 -18 0 -11 -9 -27 -20 -37 -11 -10
-20 -24 -20 -32 0 -7 -4 -13 -10 -13 -5 0 -10 -7 -10 -15 0 -8 -4 -15 -8 -15
-5 0 -15 -12 -23 -27 -8 -16 -17 -30 -21 -34 -4 -3 -11 -26 -14 -52 l-7 -47
47 0 c25 0 46 5 46 10 0 6 7 10 15 10 8 0 15 -4 15 -10 0 -6 27 -10 60 -10 52
0 60 3 60 19 0 15 8 19 50 20 44 0 50 -2 50 -19 0 -18 7 -20 55 -20 30 0 55 5
55 10 0 6 25 10 55 10 30 0 55 -4 55 -10 0 -17 36 -11 54 9 15 16 15 22 4 40
-7 12 -16 21 -20 21 -5 0 -8 10 -8 23 0 12 -9 33 -20 47 -11 14 -20 31 -20 38
0 6 -4 12 -10 12 -5 0 -10 7 -10 15 0 8 -4 15 -10 15 -5 0 -10 7 -10 15 0 8
-4 15 -10 15 -5 0 -10 11 -10 25 0 14 -9 30 -20 37 -11 7 -20 21 -20 30 0 10
-4 18 -9 18 -5 0 -11 8 -14 18 -3 9 -12 28 -21 42 -8 14 -21 40 -28 58 -7 17
-16 32 -20 32 -5 0 -8 7 -8 15 0 10 -10 15 -30 15 -25 0 -30 -4 -30 -23z"/>
</g>
</svg>
